# xmcd
# Track frame offsets:
# 150
# 11907
# 24460
# 42042
# 54900
# 67310
# 78905
# 79435
# 88875
# 102480
#
# Disc length: 1533 seconds
# Revision: 0
# Processed by: cddbd v1.4PL0 Copyright (c) Steve Scherf et al.
# Submitted via: VisiTrax 2.9.5.180 - For more info visit www.synapsa.com
#
DISCID=8005fb0a
DTITLE=Tammy Wynette - Collector's edition
DYEAR=1998
DGENRE=
TTITLE0=There's no use hanging on
TTITLE1=Greener than the grass (we laid on)
TTITLE2=Easy come, easy go
TTITLE3=What's your mama's name child
TTITLE4=He loves me all the way
TTITLE5=I don't wanna play house
TTITLE6=You can be replaced
TTITLE7=Your good girl's gonna go bad
TTITLE8=D-I-V-O-R-C-E
TTITLE9=Stand by your man
EXTD=
EXTT0=
EXTT1=
EXTT2=
EXTT3=
EXTT4=
EXTT5=
EXTT6=
EXTT7=
EXTT8=
EXTT9=
PLAYORDER=
